<svg width="66" height="65" viewBox="0 0 66 65" fill="none" xmlns="http://www.w3.org/2000/svg">
<circle cx="30.5763" cy="35" r="30" fill="#396C03"/>
<path d="M18.3264 20C17.8622 20 17.4171 20.1859 17.0889 20.5169C16.7607 20.8478 16.5763 21.2967 16.5763 21.7647C16.5763 22.2327 16.7607 22.6816 17.0889 23.0125C17.4171 23.3435 17.8622 23.5294 18.3264 23.5294H20.4614L20.9952 25.6859C21.0005 25.7107 21.0063 25.7354 21.0127 25.76L23.3893 35.3424L21.8265 36.9165C19.6214 39.14 21.1824 42.9412 24.3011 42.9412H39.3271C39.7912 42.9412 40.2363 42.7553 40.5645 42.4243C40.8927 42.0934 41.0771 41.6445 41.0771 41.1765C41.0771 40.7084 40.8927 40.2596 40.5645 39.9286C40.2363 39.5977 39.7912 39.4118 39.3271 39.4118H24.3011L26.0511 37.6471H37.577C37.9019 37.6469 38.2204 37.5555 38.4967 37.3831C38.773 37.2108 38.9963 36.9643 39.1415 36.6712L44.3917 26.0829C44.525 25.814 44.5879 25.5151 44.5745 25.2147C44.5611 24.9143 44.4718 24.6224 44.3151 24.3666C44.1583 24.1108 43.9394 23.8996 43.679 23.7531C43.4186 23.6066 43.1254 23.5296 42.8272 23.5294H24.0665L23.524 21.3359C23.4292 20.9543 23.2107 20.6155 22.9031 20.3735C22.5956 20.1315 22.2166 20 21.8265 20H18.3264ZM41.0771 47.3529C41.0771 48.055 40.8005 48.7283 40.3082 49.2247C39.8159 49.7211 39.1482 50 38.452 50C37.7558 50 37.0881 49.7211 36.5958 49.2247C36.1035 48.7283 35.8269 48.055 35.8269 47.3529C35.8269 46.6509 36.1035 45.9776 36.5958 45.4812C37.0881 44.9848 37.7558 44.7059 38.452 44.7059C39.1482 44.7059 39.8159 44.9848 40.3082 45.4812C40.8005 45.9776 41.0771 46.6509 41.0771 47.3529ZM24.4516 50C25.1478 50 25.8155 49.7211 26.3078 49.2247C26.8001 48.7283 27.0766 48.055 27.0766 47.3529C27.0766 46.6509 26.8001 45.9776 26.3078 45.4812C25.8155 44.9848 25.1478 44.7059 24.4516 44.7059C23.7553 44.7059 23.0876 44.9848 22.5953 45.4812C22.103 45.9776 21.8265 46.6509 21.8265 47.3529C21.8265 48.055 22.103 48.7283 22.5953 49.2247C23.0876 49.7211 23.7553 50 24.4516 50Z" fill="white"/>
<circle cx="52.5763" cy="13" r="13" fill="#FF8B00"/>
<path d="M48.2003 16.808C48.563 16.52 48.7283 16.3867 48.6963 16.408C49.7416 15.544 50.563 14.8347 51.1603 14.28C51.7683 13.7253 52.2803 13.144 52.6963 12.536C53.1123 11.928 53.3203 11.336 53.3203 10.76C53.3203 10.3227 53.219 9.98133 53.0163 9.736C52.8136 9.49067 52.5096 9.368 52.1043 9.368C51.699 9.368 51.379 9.52267 51.1443 9.832C50.9203 10.1307 50.8083 10.5573 50.8083 11.112H48.1683C48.1896 10.2053 48.3816 9.448 48.7443 8.84C49.1176 8.232 49.603 7.784 50.2003 7.496C50.8083 7.208 51.4803 7.064 52.2163 7.064C53.4856 7.064 54.4403 7.38933 55.0803 8.04C55.731 8.69067 56.0563 9.53867 56.0563 10.584C56.0563 11.7253 55.667 12.7867 54.8883 13.768C54.1096 14.7387 53.1176 15.688 51.9123 16.616H56.2323V18.84H48.2003V16.808Z" fill="white"/>
</svg>
