<svg width="136" height="28" viewBox="0 0 136 28" fill="none" xmlns="http://www.w3.org/2000/svg">
<path d="M10.593 17.9169L7.87187 17.8885C7.09712 17.8885 6.50188 17.898 6.08616 17.9169C5.78382 20.5624 5.63265 22.7071 5.63265 24.3511C5.63265 25.9951 5.68934 27.1478 5.80271 27.8092C5.19803 27.847 4.8012 27.8659 4.61224 27.8659C3.53514 27.8659 2.76039 27.6769 2.28798 27.299C1.81557 26.921 1.57936 26.2597 1.57936 25.3148C1.57936 24.3511 1.84391 22.0552 2.37301 18.4271C1.76833 18.6161 1.32426 18.7767 1.04081 18.909C1.00302 18.4932 0.984125 18.1814 0.984125 17.9736C0.984125 16.6697 1.57936 15.8572 2.76984 15.5359C3.12887 12.9471 3.34618 10.7079 3.42176 8.81826C2.45805 8.81826 1.84391 8.68599 1.57936 8.42144C1.33371 8.15689 1.21088 7.5711 1.21088 6.66407C1.28647 5.81373 1.36205 5.25628 1.43764 4.99173C3.57294 5.27518 5.91609 5.4169 8.46711 5.4169C11.0181 5.4169 13.4841 5.19015 15.8651 4.73663C15.6005 6.72076 14.3911 7.91123 12.2369 8.30806C11.0654 8.53481 9.39304 8.68599 7.21995 8.76157C7.20105 9.00722 6.92705 11.2087 6.39795 15.3659C7.49394 15.4037 8.24035 15.4226 8.63718 15.4226C10.4323 15.4226 11.7078 15.1108 12.4637 14.4872C12.5015 14.8651 12.5204 15.1486 12.5204 15.3375C12.5204 17.0571 11.8779 17.9169 10.593 17.9169ZM23.9583 13.1833C22.7301 13.1833 21.6341 14.0148 20.6704 15.6777C19.7066 17.3217 19.2248 18.9656 19.2248 20.6096C19.2248 24.0488 20.1129 25.7684 21.8892 25.7684C23.1552 25.7684 24.1851 24.9464 24.9788 23.3024C25.7724 21.6395 26.1692 19.7782 26.1692 17.7185C26.1692 14.695 25.4323 13.1833 23.9583 13.1833ZM25.7157 11.1142C26.8495 11.1142 27.8132 11.6716 28.6069 12.7865C29.4005 13.9014 29.7973 15.3942 29.7973 17.265C29.7973 19.3625 29.3722 21.2899 28.5218 23.0473C27.577 25.0314 26.2354 26.4014 24.4969 27.1572C23.5143 27.5919 22.4372 27.8092 21.2656 27.8092C19.6216 27.8092 18.1855 27.1761 16.9572 25.9101C15.7478 24.6251 15.1432 22.7922 15.1432 20.4112C15.1432 18.0114 15.7289 15.9044 16.9005 14.0904C18.0721 12.2574 19.6216 11.1047 21.549 10.6323C21.7569 10.6323 21.9459 10.6985 22.1159 10.8307C22.3049 10.9441 22.3994 11.0669 22.3994 11.1992C20.4908 12.522 19.3476 14.3644 18.9697 16.7264C19.3665 15.6682 19.8484 14.7517 20.4153 13.977C21.0011 13.2022 21.6057 12.6164 22.2293 12.2196C23.4198 11.4827 24.5819 11.1142 25.7157 11.1142ZM41.4523 13.1833C40.224 13.1833 39.128 14.0148 38.1643 15.6777C37.2006 17.3217 36.7187 18.9656 36.7187 20.6096C36.7187 24.0488 37.6069 25.7684 39.3831 25.7684C40.6492 25.7684 41.6791 24.9464 42.4727 23.3024C43.2664 21.6395 43.6632 19.7782 43.6632 17.7185C43.6632 14.695 42.9262 13.1833 41.4523 13.1833ZM43.2097 11.1142C44.3435 11.1142 45.3072 11.6716 46.1008 12.7865C46.8945 13.9014 47.2913 15.3942 47.2913 17.265C47.2913 19.3625 46.8661 21.2899 46.0158 23.0473C45.071 25.0314 43.7293 26.4014 41.9909 27.1572C41.0082 27.5919 39.9311 27.8092 38.7596 27.8092C37.1156 27.8092 35.6794 27.1761 34.4512 25.9101C33.2418 24.6251 32.6371 22.7922 32.6371 20.4112C32.6371 18.0114 33.2229 15.9044 34.3945 14.0904C35.5661 12.2574 37.1156 11.1047 39.043 10.6323C39.2509 10.6323 39.4398 10.6985 39.6099 10.8307C39.7989 10.9441 39.8933 11.0669 39.8933 11.1992C37.9848 12.522 36.8416 14.3644 36.4636 16.7264C36.8605 15.6682 37.3423 14.7517 37.9092 13.977C38.495 13.2022 39.0997 12.6164 39.7233 12.2196C40.9138 11.4827 42.0759 11.1142 43.2097 11.1142ZM53.9293 21.6584C53.9293 23.9071 54.6095 25.0314 55.9701 25.0314C56.6881 25.0314 57.3873 24.644 58.0676 23.8693C58.7478 23.0945 59.2958 22.0552 59.7116 20.7514C60.1462 19.4475 60.5147 18.0586 60.817 16.5847C61.1382 15.0919 61.3745 13.514 61.5256 11.8511C61.7902 8.63874 61.9224 6.13497 61.9224 4.33981C61.9224 2.52575 61.8469 1.16521 61.6957 0.258179C63.0562 0.560522 64.0105 1.203 64.5585 2.18561C65.1065 3.16823 65.3805 4.40595 65.3805 5.89876C65.3805 7.39158 65.0593 10.1694 64.4168 14.2321C63.7932 18.2948 63.4814 21.2616 63.4814 23.1323C63.4814 25.0031 63.5664 26.5904 63.7365 27.8942C62.3949 27.5352 61.4689 26.8927 60.9587 25.9668C60.4674 25.0219 60.2218 23.8409 60.2218 22.4237C59.636 24.0488 58.7573 25.3337 57.5857 26.2786C56.4141 27.2234 55.2048 27.6958 53.9576 27.6958C52.7104 27.6958 51.69 27.2234 50.8964 26.2786C50.1216 25.3148 49.7343 23.9071 49.7343 22.0552C49.7343 19.1263 50.5373 16.613 52.1435 14.5155C53.7497 12.3991 55.6488 11.3409 57.8408 11.3409C58.4644 11.3409 59.447 11.4921 60.7887 11.7944C59.6171 12.0968 58.5683 12.6259 57.6424 13.3817C56.7354 14.1187 56.0268 14.969 55.5166 15.9328C54.4584 17.8413 53.9293 19.7498 53.9293 21.6584ZM81.0327 7.68447V10.3205H75.789V27.384H72.5577V10.3205H67.2856V7.68447H81.0327ZM85.9492 9.69695C85.3634 9.69695 84.8721 9.49853 84.4753 9.10171C84.0784 8.70488 83.88 8.21358 83.88 7.62779C83.88 7.042 84.0784 6.55069 84.4753 6.15386C84.8721 5.75704 85.3634 5.55863 85.9492 5.55863C86.5161 5.55863 86.9979 5.75704 87.3948 6.15386C87.7916 6.55069 87.99 7.042 87.99 7.62779C87.99 8.21358 87.7916 8.70488 87.3948 9.10171C86.9979 9.49853 86.5161 9.69695 85.9492 9.69695ZM87.5365 11.7661V27.384H84.3052V11.7661H87.5365ZM110.685 11.511C111.913 11.511 113.009 11.7661 113.973 12.2763C114.955 12.7865 115.721 13.5424 116.269 14.5439C116.836 15.5454 117.119 16.7548 117.119 18.172V27.384H113.916V18.6539C113.916 17.2555 113.566 16.1879 112.867 15.4509C112.168 14.6951 111.214 14.3171 110.004 14.3171C108.795 14.3171 107.831 14.6951 107.113 15.4509C106.414 16.1879 106.065 17.2555 106.065 18.6539V27.384H102.862V18.6539C102.862 17.2555 102.512 16.1879 101.813 15.4509C101.114 14.6951 100.159 14.3171 98.9501 14.3171C97.7407 14.3171 96.777 14.6951 96.0589 15.4509C95.3598 16.1879 95.0102 17.2555 95.0102 18.6539V27.384H91.7789V11.7661H95.0102V13.5518C95.5393 12.9093 96.2101 12.4086 97.0226 12.0496C97.8352 11.6905 98.7044 11.511 99.6303 11.511C100.878 11.511 101.992 11.7756 102.975 12.3047C103.958 12.8338 104.713 13.5991 105.243 14.6006C105.715 13.6557 106.452 12.9093 107.453 12.3613C108.455 11.7944 109.532 11.511 110.685 11.511ZM135.545 19.1924C135.545 19.7782 135.507 20.3073 135.431 20.7797H123.498C123.593 22.0269 124.056 23.0284 124.887 23.7842C125.719 24.5401 126.739 24.918 127.948 24.918C129.687 24.918 130.915 24.1905 131.633 22.7355H135.12C134.647 24.1716 133.787 25.3526 132.54 26.2786C131.312 27.1856 129.781 27.6391 127.948 27.6391C126.456 27.6391 125.114 27.3084 123.923 26.647C122.752 25.9668 121.826 25.0219 121.146 23.8126C120.484 22.5843 120.154 21.1671 120.154 19.5609C120.154 17.9547 120.475 16.5469 121.117 15.3375C121.779 14.1093 122.695 13.1644 123.867 12.5031C125.057 11.8417 126.418 11.511 127.948 11.511C129.422 11.511 130.736 11.8322 131.888 12.4747C133.041 13.1172 133.939 14.0242 134.581 15.1958C135.224 16.3485 135.545 17.6807 135.545 19.1924ZM132.172 18.172C132.153 16.9815 131.728 16.0272 130.896 15.3092C130.065 14.5911 129.035 14.2321 127.807 14.2321C126.692 14.2321 125.738 14.5911 124.944 15.3092C124.15 16.0084 123.678 16.9626 123.527 18.172H132.172Z" fill="#396C03"/>
</svg>
